<?xml version="1.0" encoding="UTF-8" standalone="no"?>
<!-- Generator: Adobe Illustrator 19.2.0, SVG Export Plug-In . SVG Version: 6.00 Build 0)  -->

<svg
   xmlns:dc="http://purl.org/dc/elements/1.1/"
   xmlns:cc="http://creativecommons.org/ns#"
   xmlns:rdf="http://www.w3.org/1999/02/22-rdf-syntax-ns#"
   xmlns:svg="http://www.w3.org/2000/svg"
   xmlns="http://www.w3.org/2000/svg"
   xmlns:sodipodi="http://sodipodi.sourceforge.net/DTD/sodipodi-0.dtd"
   xmlns:inkscape="http://www.inkscape.org/namespaces/inkscape"
   version="1.1"
   id="svg4246"
   inkscape:version="0.91 r13725"
   sodipodi:docname="logo.svg"
   x="0px"
   y="0px"
   viewBox="0 0 595.3 841.9"
   style="enable-background:new 0 0 595.3 841.9;"
   xml:space="preserve"
   inkscape:export-filename="/home/david/lab/comunicacion/graficas/logo/logo.png"
   inkscape:export-xdpi="49.847687"
   inkscape:export-ydpi="49.847687"><metadata
     id="metadata4192"><rdf:RDF><cc:Work
         rdf:about=""><dc:format>image/svg+xml</dc:format><dc:type
           rdf:resource="http://purl.org/dc/dcmitype/StillImage" /><dc:title></dc:title></cc:Work></rdf:RDF></metadata><defs
     id="defs4190" /><style
     type="text/css"
     id="style4185">
	.st0{fill:#1E1E1E;}
</style><sodipodi:namedview
     bordercolor="#666666"
     borderopacity="1.0"
     id="base"
     inkscape:current-layer="svg4246"
     inkscape:cx="356.48293"
     inkscape:cy="532.1664"
     inkscape:document-units="px"
     inkscape:pageopacity="0.0"
     inkscape:pageshadow="2"
     inkscape:window-height="1056"
     inkscape:window-maximized="1"
     inkscape:window-width="1855"
     inkscape:window-x="65"
     inkscape:window-y="24"
     inkscape:zoom="0.73"
     pagecolor="#ffffff"
     showgrid="false" /><path
     class="st0"
     d="M494.1,474.1c-9.3-25-34.3-54.5-73.4-74.1l-7.5-2.3c-1.6-35.5,11.5-70.9,24.2-106.4c4.5-8.2,7.4-16.8,8.7-25.6  c7.8-29.7,6.8-70.1-1.5-100.3c-10.6-49.8-73.5-86.8-147.8-86.8c-67.2,0.1-126.1,30.5-143.9,74.4l-0.1-0.1c-0.6,1.4-1.1,2.9-1.6,4.5  c-0.4,1.2-0.8,2.5-1.2,3.7c-10.4,33.8-10.9,82.4,0.4,113.5c1.5,5.6,3.7,11,6.6,16.3c12.8,35.7,26,71.3,24.3,107  c-26.6,16.2-44.2,32.2-53.8,48c-0.8,1.3-1.5,2.7-2.2,4l0,0c-2.5,3.5-4.5,6.9-5.9,10.1l0.7-0.1c-5,7.4-8.8,14.7-11.4,21.7  c-22.1,44.4-18.2,97,4.4,153.5c15.7,25.6,34.1,25.3,51.3,36.7c12,8.6,24.1,12.4,33.3,29.5c7.1,15.8,22.2,28.8,23.5,45.6l7.9,53.9  c6.5-21.3,5-40.1,5-61.4c-5.7-37.3-20.8-83.6-57.2-103.6c-18-8-31.4-20.7-41.6-33.5c-14.2-37.3,3.2-65.9,17.4-93.6  c10.1-16,23.7-23.9,39-28.2c-9.8,28-18.2,57.3-15.9,96.5c0.5,12.2,6.6,24.4,18.1,36.5c10.2,9.9,26,12.9,41.5,16.4  c-0.5,4.5-6.2,67.1,16.8,84.4c26.1,34.8-16-32.6,4.1-90.9c-22.9-34.2-64.2-31.4-60.3-53c7.8-26,12.5-43.9,15.4-56.5  c9.5-15.1,20.2-27.9,32.8-36.7c0.4,29-10.6,58,13,87c12.3,10.7,13.7,26.3,19.7,40.2l5.6,23.7c7.9-12.3,3.1-26.9,0.7-41.3  c-8.8-19-25.6-32.9-19-53.9l9.8-33.8c6.6-13.7,13.8-22.1,21.4-27.2l2.8,0.4c9,6.2,17.5,17,25,35.8l0.2-0.1l8.4,29.1  c6.6,21-10.2,34.9-19,53.9c-2.4,14.4-7.2,29,0.7,41.3l5.6-23.7c6-13.9,7.4-29.4,19.7-40.2c23.6-29.1,12.5-58.1,13-87.2l1.4-10.9  c4,6.2,4.9-9.4,39.2,69.5c2.2,7.9,4.8,16.8,7.8,27.1c3.8,21.6-37.5,18.7-60.3,53c20.1,58.3-22,125.7,4.1,90.9  c23-17.2,17.3-79.9,16.8-84.4c15.5-3.5,31.3-6.5,41.5-16.4c11.5-12.2,17.5-24.4,18.1-36.5c2.4-42-7.3-72.7-18.1-102.6l2.4,0.6l0,0.1  c0.7,0.1,1.4,0.3,2.1,0.5l4.9,1.2c15.1,4.3,28.6,12.2,38.6,28.1c14.1,27.7,31.6,56.3,17.4,93.6c-10.2,12.8-23.6,25.4-41.6,33.5  c-36.4,20-51.5,66.3-57.2,103.6c-0.1,21.3-1.5,40.1,5,61.4l7.9-53.9c1.3-16.8,16.4-29.8,23.5-45.6c9.2-17,21.3-20.8,33.3-29.5  c17.2-11.5,35.6-11.2,51.3-36.7C512.2,571,516.2,518.5,494.1,474.1z M182.4,394.4l0.3-1.2l0,0.1L182.4,394.4z M203.9,320.9  c0.6-13.6,8.6-15.8,16-18.9c36.2-0.2,40.9,23.1,51.4,42.1C249,343.9,226.9,353.9,203.9,320.9z M331.3,344.3L331.3,344.3  c10.5-19,15.1-42.2,51.4-42.1c7.4,3.1,15.3,5.3,16,18.9C375.7,354,353.6,344.1,331.3,344.3z"
     id="path4188" /></svg>