<?xml version="1.0" encoding="UTF-8" standalone="no"?>
<!-- Created with Inkscape (http://www.inkscape.org/) -->

<svg
   xmlns:dc="http://purl.org/dc/elements/1.1/"
   xmlns:cc="http://creativecommons.org/ns#"
   xmlns:rdf="http://www.w3.org/1999/02/22-rdf-syntax-ns#"
   xmlns:svg="http://www.w3.org/2000/svg"
   xmlns="http://www.w3.org/2000/svg"
   xmlns:sodipodi="http://sodipodi.sourceforge.net/DTD/sodipodi-0.dtd"
   xmlns:inkscape="http://www.inkscape.org/namespaces/inkscape"
   id="svg3476"
   version="1.1"
   inkscape:version="0.91 r13725"
   width="1350"
   height="1557"
   viewBox="0 0 1350 1557"
   sodipodi:docname="logo2.svg"
   inkscape:export-filename="/home/mini/Desktop/rlyeh-logo.png"
   inkscape:export-xdpi="99.360268"
   inkscape:export-ydpi="99.360268"
   style="shape-rendering:crispEdges">
  <metadata
     id="metadata3482">
    <rdf:RDF>
      <cc:Work
         rdf:about="">
        <dc:format>image/svg+xml</dc:format>
        <dc:type
           rdf:resource="http://purl.org/dc/dcmitype/StillImage" />
        <dc:title />
      </cc:Work>
    </rdf:RDF>
  </metadata>
  <defs
     id="defs3480" />
  <sodipodi:namedview
     pagecolor="#000000"
     bordercolor="#666666"
     borderopacity="1"
     objecttolerance="10"
     gridtolerance="10"
     guidetolerance="10"
     inkscape:pageopacity="1"
     inkscape:pageshadow="2"
     inkscape:window-width="1596"
     inkscape:window-height="857"
     id="namedview3478"
     showgrid="false"
     inkscape:zoom="0.34452555"
     inkscape:cx="965.60197"
     inkscape:cy="749.78613"
     inkscape:window-x="0"
     inkscape:window-y="20"
     inkscape:window-maximized="0"
     inkscape:current-layer="svg3476"
     units="mm"
     showguides="true"
     borderlayer="true">
    <inkscape:grid
       type="xygrid"
       id="grid5244" />
  </sodipodi:namedview>
  <path
     style="fill:#ffffff;fill-opacity:1;fill-rule:evenodd;stroke:#ffffff;stroke-width:16.95975304;stroke-linecap:round;stroke-linejoin:miter;stroke-miterlimit:4;stroke-dasharray:none;stroke-opacity:1"
     d="m 659.20894,60.358906 c -63.92296,2.866872 -134.89255,28.471715 -160.51356,38.295312 -34.93039,19.419832 -55.60082,28.129732 -86.5364,63.472762 -39.78343,57.80106 -46.56643,114.46835 -49.538,150.812 1.84037,25.24673 -0.26361,44.5463 3.31806,72.64094 2.48263,22.40688 5.7618,49.71374 6.18699,73.0087 9.55648,47.24494 47.40957,122.72918 50.73104,149.39438 3.28654,35.47034 6.48112,68.94947 7.91621,85.04299 -21.22389,18.73462 -46.84543,28.2919 -62.87202,43.71313 -70.34268,70.20997 -67.78315,78.01599 -84.30714,124.85152 -13.68556,37.05305 -19.03385,65.94648 -22.16953,107.77401 0.15787,32.16055 -3.51866,55.29045 1.35589,91.62265 13.44049,49.6069 16.40817,60.8728 36.18809,87.2005 23.90284,28.8326 83.0742,47.369 101.1898,64.0763 49.56427,43.3716 48.75703,46.3044 70.67686,78.0054 11.95025,20.3406 17.55304,29.6538 25.77443,51.6967 17.0139,30.1866 19.17751,67.7722 20.40807,109.0696 22.84389,-41.5058 19.06556,-53.4037 14.34782,-96.4648 -5.82681,-33.2288 -15.09811,-45.9191 -24.71467,-80.0946 -16.86688,-47.2382 -32.10531,-64.9178 -53.74032,-86.4101 -18.74795,-22.6928 -65.68948,-49.3695 -89.73658,-74.1764 -16.6004,-19.403 -28.9676,-42.323 -30.67104,-70.3654 -0.0929,-41.298 11.22249,-97.34681 30.97422,-138.64476 22.12394,-48.54268 63.43711,-61.95135 87.03598,-76.52997 l 8.09595,4.25958 c 6.9501,30.746 -0.0663,34.44054 -6.23471,46.94418 -18.64296,25.609 -20.22913,30.28617 -28.42532,45.97571 -8.62971,37.03152 -15.37787,58.73927 -12.41047,87.88676 4.93007,33.6559 12.61404,48.74 37.48404,66.9816 33.95258,20.3996 34.36908,21.3282 60.99265,41.3402 10.76528,10.7778 24.02827,18.3131 44.45952,46.3652 19.15538,38.7703 19.37674,60.6895 22.86605,90.76 18.38812,-31.4651 9.52691,-64.3133 0.34299,-97.2533 -17.45141,-36.3829 -50.59168,-69.2602 -86.60471,-96.5713 -19.67804,-17.8545 -28.66583,-31.5316 -26.20106,-59.0049 2.53819,-28.29156 8.31838,-39.77505 12.40451,-47.99741 30.17949,-75.10647 56.86216,-71.80981 83.20739,-112.40793 -0.33575,46.23491 -15.37794,94.03418 4.0839,140.26904 29.09516,55.1354 63.42939,109.6172 71.43667,167.3884 5.56838,-11.8633 12.793,-29.4816 7.70287,-65.5134 -6.17939,-31.0731 -22.0472,-54.6157 -29.42189,-79.2183 -7.56872,-27.57214 -4.96681,-41.58339 -7.45021,-62.37519 0.0875,-47.21818 26.75546,-79.34448 54.30738,-107.34308 28.95645,28.21468 62.25755,58.89838 62.34707,107.21672 -2.33453,20.45463 -0.13366,30.70484 -7.453,62.37525 -5.75127,27.5837 -16.23511,36.7836 -29.42188,79.2182 -5.09014,36.0319 1.39702,57.3346 11.39018,75.0976 8.00728,-57.7712 38.6542,-121.8371 67.74934,-176.97245 19.46185,-46.23486 1.81233,-92.46981 1.47658,-138.70472 l 79.03566,121.79444 c 17.429,35.07103 13.79151,66.19453 -13.27508,92.92263 -25.58372,31.8016 -70.71771,57.5868 -82.95445,98.1329 -9.63179,31.1486 -16.24948,58.2089 2.95032,98.8204 2.44636,-32.6778 -2.54412,-52.5111 24.95473,-87.1097 11.82328,-13.4511 19.35344,-24.6367 32.46298,-35.4144 26.62357,-20.012 36.94792,-35.5417 70.9005,-55.9412 24.87,-18.2416 29.42517,-37.4974 37.48405,-66.9817 5.05325,-29.14735 0.39097,-53.46241 -12.41047,-87.88669 -7.67472,-14.1251 -12.91116,-26.62431 -28.42533,-45.9757 0,0 -13.57635,-17.78413 -13.53523,-52.68032 8.07921,2.39803 7.86243,-0.73463 24.2614,7.2099 23.59886,14.57861 56.04706,22.25395 78.17108,70.79663 19.75175,41.29802 29.32389,79.64769 33.92406,120.94568 -1.7034,28.0424 -23.79954,68.1401 -33.6209,88.0644 -18.65118,26.9564 -65.78995,47.3247 -89.73657,74.1766 -24.41886,27.5779 -34.08519,45.3514 -53.73751,86.4101 -16.39563,31.568 -19.41214,42.6941 -25.23897,80.6161 -2.25952,29.969 -9.11389,51.1371 14.86929,95.9432 1.23056,-41.2975 2.35125,-73.6683 12.58608,-100.7261 10.0311,-27.2999 13.20996,-39.1059 30.98909,-63.6905 23.48423,-28.0507 23.71993,-30.9833 73.28421,-74.3551 18.1156,-16.7072 77.28698,-35.2438 101.18978,-64.0763 13.4482,-17.3887 34.2416,-33.6223 38.6011,-79.5729 3.3102,-33.7249 6.4281,-53.9048 0.8498,-86.06537 -4.7001,-43.39192 -10.388,-74.52229 -23.0307,-124.09054 -25.6247,-54.55656 -52.97437,-92.34199 -85.35291,-121.71989 -13.83366,-17.23714 -42.86571,-27.15705 -64.08282,-50.74787 0.2992,-28.16334 4.2777,-52.09095 4.95839,-78.30862 -2.63889,-35.20912 28.37328,-102.86332 44.98761,-148.96769 4.78284,-23.37767 3.98453,-37.50098 6.59956,-65.63428 2.72257,-30.92923 -0.10313,-38.19825 1.51026,-87.02204 C 957.79522,237.45891 940.4707,200.3643 910.68298,162.12698 881.77513,134.21342 852.1282,121.45353 817.02761,100.91679 780.64602,86.659143 720.10595,60.038109 659.20894,60.358906 Z"
     id="path3497"
     inkscape:connector-curvature="0"
     sodipodi:nodetypes="ccccccccccccccccccccccccccccccccccsccccccccccccccccccccccccccccccccccccccccccccccccc" />
  <path
     style="fill:#000000;fill-opacity:1;fill-rule:evenodd;stroke:none;stroke-width:8.84127045;stroke-linecap:butt;stroke-linejoin:miter;stroke-miterlimit:4;stroke-dasharray:none;stroke-opacity:1"
     d="m 716.18574,660.82051 c 15.60738,-27.66546 33.77931,-62.65806 51.52071,-83.51787 17.96188,-17.77429 38.27516,-16.71962 57.36565,-17.48053 17.28437,2.54815 37.10561,16.92942 43.09061,33.16508 2.89315,5.01105 3.00368,14.37393 3.14842,19.82665 -7.78924,18.84701 -16.62294,29.65993 -51.87655,49.01734 -35.46255,8.34729 -69.69232,6.46236 -103.24884,-1.01067 z"
     id="path3505"
     inkscape:connector-curvature="0"
     sodipodi:nodetypes="ccccccc" />
  <path
     style="fill:#000000;fill-opacity:1;fill-rule:evenodd;stroke:none;stroke-width:8.84127045;stroke-linecap:butt;stroke-linejoin:miter;stroke-miterlimit:4;stroke-dasharray:none;stroke-opacity:1;shape-rendering:crispEdges"
     d="m 605.50296,660.71161 c -15.60738,-27.66546 -33.77932,-62.65806 -51.52071,-83.51787 -17.96189,-17.77429 -38.27516,-16.71962 -57.36565,-17.48053 -16.13211,4.33092 -33.90271,18.84566 -40.68845,29.61514 -2.89313,5.01104 -5.40584,17.92385 -5.55058,23.37659 7.78924,18.84701 16.62293,29.65993 51.87654,49.01734 35.46255,8.34729 69.69233,6.46236 103.24885,-1.01067 z"
     id="path3505-3"
     inkscape:connector-curvature="0"
     sodipodi:nodetypes="ccccccc" />
</svg>
