<?xml version="1.0" encoding="UTF-8" standalone="no"?>
<!-- Created with Inkscape (http://www.inkscape.org/) -->

<svg
   xmlns:dc="http://purl.org/dc/elements/1.1/"
   xmlns:cc="http://creativecommons.org/ns#"
   xmlns:rdf="http://www.w3.org/1999/02/22-rdf-syntax-ns#"
   xmlns:svg="http://www.w3.org/2000/svg"
   xmlns="http://www.w3.org/2000/svg"
   xmlns:sodipodi="http://sodipodi.sourceforge.net/DTD/sodipodi-0.dtd"
   xmlns:inkscape="http://www.inkscape.org/namespaces/inkscape"
   id="svg3476"
   version="1.1"
   inkscape:version="0.91 r13725"
   width="1350"
   height="1370"
   viewBox="0 0 1350 1370"
   sodipodi:docname="rlyeh-logo-inkscape.svg"
   inkscape:export-filename="/home/mini/Desktop/rlyeh-logo.png"
   inkscape:export-xdpi="90"
   inkscape:export-ydpi="90"
   shape-rendering="crispEdges">
  <metadata
     id="metadata3482">
    <rdf:RDF>
      <cc:Work
         rdf:about="">
        <dc:format>image/svg+xml</dc:format>
        <dc:type
           rdf:resource="http://purl.org/dc/dcmitype/StillImage" />
        <dc:title></dc:title>
      </cc:Work>
    </rdf:RDF>
  </metadata>
  <defs
     id="defs3480" />
  <sodipodi:namedview
     pagecolor="#000000"
     bordercolor="#666666"
     borderopacity="1"
     objecttolerance="10"
     gridtolerance="10"
     guidetolerance="10"
     inkscape:pageopacity="1"
     inkscape:pageshadow="2"
     inkscape:window-width="1596"
     inkscape:window-height="857"
     id="namedview3478"
     showgrid="false"
     inkscape:zoom="0.4872327"
     inkscape:cx="669.08906"
     inkscape:cy="868.53822"
     inkscape:window-x="0"
     inkscape:window-y="20"
     inkscape:window-maximized="0"
     inkscape:current-layer="svg3476"
     units="mm" />
  <path
     style="fill:#ffffff;fill-rule:evenodd;stroke:none;stroke-width:1px;stroke-linecap:butt;stroke-linejoin:miter;stroke-opacity:1;fill-opacity:1"
     d="m 474.10611,456.16561 c 4.67167,-10.18141 10.91481,-18.00562 13.85375,-30.78612 -1.61556,-22.04378 -7.86756,-32.49645 -11.80134,-48.74467 2.06751,-25.28663 2.4686,-64.66937 32.32541,-104.15968 6.28554,-14.43153 34.09156,-33.55413 60.20899,-44.16322 17.46338,-9.73745 53.35103,-19.00604 111.68013,-26.64483 69.5644,7.47333 73.20253,18.81373 109.8038,28.2206 21.34315,13.77564 28.1185,11.36484 65.16393,42.58745 20.72527,26.60418 32.77882,52.41348 31.81232,100.05486 -1.68713,35.78396 -7.18056,37.31118 -10.77514,55.92811 8.24658,8.28591 10.33054,18.11247 13.34065,27.7075 -16.94499,36.14131 -20.78889,71.1434 -66.70324,109.80379 12.19749,4.22001 21.82843,9.46664 27.19439,16.41926 -1.5219,8.0753 0.0786,12.50779 -6.67032,26.6813 -5.0165,6.84136 -10.6272,13.68271 -21.03718,20.52407 -18.98477,8.07175 -37.96953,-2.83155 -56.9543,-4.61792 7.28127,6.7456 6.28277,12.63601 28.7337,17.95857 32.39409,0.63594 56.08052,11.72106 82.0963,20.01097 22.74188,8.51792 44.21902,9.44732 70.80805,41.04815 19.70155,7.41457 42.94943,10.57419 64.01299,7.09261 l 78.5296,-18.74202 c 8.1104,-4.20036 25.5439,-22.18909 26.226,-38.24616 5.8729,-22.91717 2.0587,-47.13873 -4.2809,-71.41285 2.8739,-31.17368 -17.6274,-38.97217 -31.2023,-53.69703 l -44.2638,-2.17691 c -15.7469,6.25157 -33.5843,9.36747 -44.26374,23.22034 -12.81931,13.93225 -19.72419,29.04739 -18.86653,45.71504 l 13.78708,22.4947 c 6.83223,11.21409 16.40789,20.73989 40.82669,21.13148 -13.7004,5.04318 -25.8536,11.69039 -43.34819,12.03523 -24.55456,1.69574 -35.5953,-6.81496 -44.26377,-14.51272 -15.69277,-12.24643 -17.90989,-25.59737 -27.22956,-38.24615 -0.62396,-24.86263 -7.66507,-47.56957 2.90254,-76.19173 2.95716,-20.3178 20.02375,-40.63559 39.18432,-60.95339 16.75326,-5.17352 28.09136,-10.98267 54.08566,-15.53892 48.172,-9.9979 64.7466,-5.8811 91.0415,-4.05325 41.567,17.23816 72.93,41.99505 88.5275,78.36865 7.6672,44.74753 21.2008,89.49505 20.3178,134.24258 -4.5248,17.1358 -6.341,29.75741 -14.5127,52.9714 -9.0883,17.0465 -21.6903,32.92173 -34.8305,48.61759 -15.1091,15.15802 -28.3991,32.58999 -48.6176,41.36123 -27.5568,12.68718 -59.1437,18.65767 -90.7045,24.67161 l -76.19169,7.25635 c -21.48389,-4.65167 -40.29715,-5.29741 -66.75848,-17.41525 -32.89346,-14.51473 -57.6273,-37.18909 -85.625,-56.59958 13.28894,14.75459 15.79607,29.50918 39.90996,44.26377 22.92385,17.20452 47.64945,25.40036 71.83792,36.28178 21.1607,11.58078 40.29249,6.93028 60.22776,8.70763 15.60135,-5.33804 34.34899,-7.03112 59.50213,-1.45127 14.6397,9.79006 35.0972,13.7622 43.5381,29.75106 8.5059,30.23307 28.6782,26.61901 33.3793,53.69703 3.6067,9.77319 4.69,15.7527 11.3611,33.50374 0.2827,21.02339 -5.1269,26.38087 -7.733,34.70601 -5.0616,9.1914 -6.213,18.3828 -17.4152,27.5742 -27.0473,21.7906 -48.8191,46.219 -88.52756,61.679 -25.54356,3.2624 -52.26663,3.576 -80.54555,0 -18.83943,-0.9762 -37.72469,-2.0059 -64.58157,-12.3358 -19.94755,-8.6369 -30.73152,-29.4919 -42.8125,-48.6176 -6.40484,-23.72928 -15.82993,-46.85451 -15.96398,-71.83794 -3.39719,-19.63066 6.96871,-41.55517 10.88453,-62.40466 0.50361,25.00581 1.03018,49.99849 10.88454,69.66102 6.45318,16.53485 14.96556,32.50809 36.28178,44.98938 18.38277,17.7045 36.76553,14.2446 55.1483,16.6896 l 58.05085,2.177 c 19.96331,0.3065 24.86436,-6.9181 34.83051,-11.6102 18.30615,-12.58727 24.06035,-26.74353 31.92795,-40.63561 3.7906,-26.09255 -17.3842,-36.82181 -29.751,-52.9714 -24.07639,-8.55831 -48.7828,-15.22656 -76.91742,-11.61017 -46.81666,2.99195 -61.46488,-15.46174 -92.15572,-23.22034 -39.45977,-14.97729 -62.09914,-39.56623 -92.88135,-59.50212 l 31.20233,89.97882 4.0897,16.68961 c 7.30537,38.49617 22.27438,78.85271 14.77682,124.80931 -4.20079,9.3888 -7.55674,19.2001 -23.94597,22.4947 -11.64116,-1.0119 -17.91374,3.9891 -40.6356,-9.4332 -9.60306,-8.659 -18.844,-17.5155 -23.22033,-29.0255 -7.18543,-10.2325 -8.85561,-24.476 -10.88454,-38.45865 -0.003,-9.26362 -1.80739,-22.06388 -0.1814,-29.02542 0.60707,-4.47476 2.96566,-11.48924 5.98649,-17.41526 9.00981,-12.75882 12.59484,-16.47634 18.86652,-24.67161 -11.38717,24.79618 -14.39015,40.55306 -7.43242,58.68844 2.83423,10.26931 9.64374,20.821 16.82922,30.2201 6.04696,8.9495 9.92415,9.1546 19.84116,10.364 l 7.04382,-27.7974 c 1.13068,-12.54509 -0.28883,-28.57528 -3.991,-42.0869 l -21.40625,-58.05085 c -5.58975,-26.25709 -27.09039,-58.65554 -39.18432,-88.16472 l -39.90995,86.35063 -15.96399,54.42267 -6.53072,59.50217 c -1.80554,8.2765 1.88106,7.0787 7.60095,13.3028 7.36275,-4.7796 14.61606,-4.2896 17.96482,-8.48 6.54346,-6.4721 12.53322,-13.4898 15.59047,-23.46929 -1.7457,-11.7521 12.44984,-32.03175 -2.99057,-65.27074 l 16.98264,28.76888 c 6.09892,18.25617 2.41879,29.99297 3.62818,44.98945 -2.35386,13.7354 -4.06691,27.3245 -11.99122,37.5205 -5.06888,9.4198 -14.88697,19.3689 -23.56493,27.7867 -10.36244,6.9462 -24.08103,9.2778 -39.90996,8.7076 -10.32686,-5.2395 -20.93581,-10.12 -23.94597,-24.6716 2.90254,-40.6356 -1.75959,-70.39652 7.42488,-125.24197 0.28413,-4.56428 1.58475,-13.7019 5.40892,-27.91118 3.3358,-22.09044 26.5924,-52.92738 35.78378,-79.7759 l -28.29978,24.67161 c -21.26425,13.58732 -40.03437,32.1629 -63.85594,40.63559 -32.16984,21.98249 -64.33969,18.09771 -96.50953,22.49471 -21.32208,-6.92254 -50.68249,6.25071 -76.91737,11.61016 -18.2632,18.38277 -24.21978,36.76554 -29.02543,55.14831 4.36722,23.44212 18.21561,32.66247 33.37924,39.90997 l 33.37924,7.982 60.22775,-4.3538 54.42267,-12.3358 c 12.09393,-10.52173 29.80732,-26.72318 30.83951,-42.44973 8.46957,-22.90436 10.94524,-48.20629 14.87553,-72.92637 3.62818,22.4947 9.54857,46.13551 10.88454,67.48411 1.57019,22.25283 -3.36521,47.05949 -11.24736,67.12129 -7.82317,14.7051 -25.78864,30.0556 -44.62658,46.0779 -20.07591,8.9495 -41.55226,8.4657 -64.94439,15.6011 -11.29951,0.3777 -50.97085,7.5671 -78.00583,-1.0884 -30.96082,-21.5238 -63.26722,-31.3003 -93.24417,-61.6791 -5.38592,-8.3846 -11.94061,-12.0139 -15.60116,-29.02537 -2.53605,-7.05299 -4.2333,-21.61695 -6.16791,-33.01642 0.65152,-8.31112 0.5896,-20.32193 11.24735,-35.91896 11.16047,-17.24491 11.53213,-26.26299 33.01642,-52.9714 11.02478,-10.34174 21.33349,-19.21525 46.07786,-27.57416 15.02369,-2.70072 37.22206,-0.0204 55.87395,0 18.91945,-0.65762 32.34187,4.18179 57.32521,-2.53972 25.87649,-14.49691 72.01593,-37.69091 79.09428,-43.53814 13.65111,-9.31232 22.33266,-26.96946 34.10487,-39.54714 -23.34093,14.16417 -47.81384,31.86806 -69.66102,41.36123 -22.08169,7.81769 -40.07549,19.13929 -68.20974,21.76907 -25.63913,-0.56666 -51.27825,-1.90509 -76.91738,-7.25636 -30.59763,-3.87005 -51.52709,-7.05698 -89.61599,-24.6716 -23.22107,-11.53732 -34.58863,-27.81603 -51.88295,-41.72405 -10.97593,-11.34939 -21.9555,-30.29788 -32.6536,-45.35223 -5.03613,-15.16973 -11.40364,-25.01394 -13.78707,-50.79449 -1.94049,-47.32878 14.99647,-90.46257 22.4947,-135.69385 10.03796,-20.43874 45.83957,-54.80824 85.625,-75.4661 21.43072,-3.8697 57.09063,-2.28873 90.70445,2.90254 20.15421,2.77088 34.25275,6.43882 48.61758,15.96398 18.19895,19.37326 30.42286,37.77002 41.36123,58.05085 4.55913,27.64165 4.53036,51.61299 4.35382,75.4661 -9.91702,12.81956 -8.66595,21.17188 -29.75106,38.45868 -13.26975,7.97857 -28.37407,9.53612 -43.53814,10.88454 -20.10354,-4.11194 -20.31779,-8.22387 -30.47669,-12.33581 12.32714,-2.9976 22.48598,-9.60905 31.92796,-17.41525 6.43996,-5.13243 10.48642,-13.25673 13.06144,-23.22034 -6.01892,-16.19534 -4.6966,-29.63772 -18.14089,-48.61758 -14.53819,-6.92536 -25.29043,-15.1127 -44.9894,-20.3178 -13.35464,0.32984 -17.90292,-1.67857 -47.89196,6.53072 -12.61685,16.77138 -23.59882,30.0982 -29.75105,52.24576 -1.72069,23.95148 3.08332,46.59803 5.80508,69.66102 4.25434,12.09393 3.38296,24.18785 14.51271,36.28178 26.84852,6.04696 39.07708,16.46005 80.54555,18.14089 21.99448,-0.94446 39.38794,4.55251 66.03284,-2.90254 24.18785,-15.48023 43.22772,-32.67645 72.56356,-46.44068 32.07816,-11.03472 52.24577,-10.1589 78.36865,-15.23835 7.71276,-3.05861 8.22643,-8.99686 11.61017,-13.78708 -19.35028,2.76734 -38.70057,7.69578 -58.05085,5.07945 -8.18119,-6.37421 -18.33989,-8.79339 -23.94598,-20.31779 -3.43915,-7.61165 -5.0206,-16.33792 -3.62817,-26.84852 10.61992,-3.88711 19.37291,-9.17441 26.12288,-15.96398 C 522.7882,530.95792 482.5797,499.86281 474.10611,456.16561 Z"
     id="path3497"
     inkscape:connector-curvature="0"
     sodipodi:nodetypes="ccccccccccccccccccccccccccccccccccccccccccccccccccccccccccccccccccccccccccccccccccccccccccccccccccccccccccccccccccccccccccccccccccccccccccccccccccccccccccccccccccc" />
  <path
     style="fill:#000000;fill-rule:evenodd;stroke:none;stroke-width:1px;stroke-linecap:butt;stroke-linejoin:miter;stroke-opacity:1;fill-opacity:1"
     d="m 659.07933,597.01206 8.72273,18.21512 -18.72822,15.1365 z"
     id="path3499"
     inkscape:connector-curvature="0" />
  <path
     style="fill:#000000;fill-rule:evenodd;stroke:none;stroke-width:1px;stroke-linecap:butt;stroke-linejoin:miter;stroke-opacity:1;fill-opacity:1"
     d="m 696.79231,614.71408 9.49239,-16.93236 8.46618,31.04266 z"
     id="path3501"
     inkscape:connector-curvature="0" />
  <path
     style="fill:#000000;fill-rule:evenodd;stroke:none;stroke-width:1px;stroke-linecap:butt;stroke-linejoin:miter;stroke-opacity:1;fill-opacity:1"
     d="m 603.40778,574.43558 c 20.63146,-8.36316 36.98201,-20.15106 52.84949,-32.32541 l -54.13225,-27.96406 -19.49787,-13.85375 -31.55576,11.28825 c 10.12407,0.63852 20.07457,0.84314 32.06886,6.15722 l -16.16271,5.38757 c -8.74223,13.68271 -5.30637,27.36543 -7.18342,41.04814 14.53789,7.65725 29.07577,8.03692 43.61366,10.26204 z"
     id="path3503"
     inkscape:connector-curvature="0"
     sodipodi:nodetypes="ccccccccc" />
  <path
     style="fill:#000000;fill-rule:evenodd;stroke:none;stroke-width:1px;stroke-linecap:butt;stroke-linejoin:miter;stroke-opacity:1;fill-opacity:1"
     d="m 708.3371,542.62327 c 17.53098,-9.23583 48.26722,-21.81221 52.59294,-27.7075 4.17525,-1.75122 14.01937,-10.60772 21.03718,-15.90616 13.94754,1.4467 23.86194,6.35037 31.04266,13.5972 -10.86066,-0.41248 -21.72131,-0.72689 -32.58197,3.59171 l 15.64961,6.41377 8.20963,31.29922 0,10.51859 c -11.35539,6.00455 -24.92147,9.79842 -42.07435,10.00548 -21.13872,-6.3639 -38.53039,-17.72386 -53.8757,-31.81231 z"
     id="path3505"
     inkscape:connector-curvature="0"
     sodipodi:nodetypes="cccccccccc" />
  <path
     style="fill:#000000;fill-rule:evenodd;stroke:none;stroke-width:1px;stroke-linecap:butt;stroke-linejoin:miter;stroke-opacity:1;fill-opacity:1"
     d="m 636.50284,418.19607 -0.5131,31.55576 99.54176,0 -0.5131,-65.16393 -31.55576,0.5131 -1.02621,-33.09507 -34.63437,0.25655 0,33.09507 35.66058,0.25655 -0.76966,33.35162 z"
     id="path3507"
     inkscape:connector-curvature="0" />
</svg>
