<?xml version="1.0" encoding="UTF-8" standalone="no"?>
<!-- Created with Inkscape (http://www.inkscape.org/) -->

<svg
   xmlns:dc="http://purl.org/dc/elements/1.1/"
   xmlns:cc="http://creativecommons.org/ns#"
   xmlns:rdf="http://www.w3.org/1999/02/22-rdf-syntax-ns#"
   xmlns:svg="http://www.w3.org/2000/svg"
   xmlns="http://www.w3.org/2000/svg"
   xmlns:sodipodi="http://sodipodi.sourceforge.net/DTD/sodipodi-0.dtd"
   xmlns:inkscape="http://www.inkscape.org/namespaces/inkscape"
   version="1.1"
   id="svg2"
   xml:space="preserve"
   width="1066.6667"
   height="1066.6667"
   viewBox="0 0 1066.6667 1066.6667"
   sodipodi:docname="sticker_redonde.svg"
   inkscape:version="0.92.2 2405546, 2018-03-11"><metadata
     id="metadata8"><rdf:RDF><cc:Work
         rdf:about=""><dc:format>image/svg+xml</dc:format><dc:type
           rdf:resource="http://purl.org/dc/dcmitype/StillImage" /><dc:title></dc:title></cc:Work></rdf:RDF></metadata><defs
     id="defs6"><clipPath
       clipPathUnits="userSpaceOnUse"
       id="clipPath20"><path
         d="M 0,800 H 800 V 0 H 0 Z"
         id="path18"
         inkscape:connector-curvature="0" /></clipPath></defs><sodipodi:namedview
     pagecolor="#ffffff"
     bordercolor="#666666"
     borderopacity="1"
     objecttolerance="10"
     gridtolerance="10"
     guidetolerance="10"
     inkscape:pageopacity="0"
     inkscape:pageshadow="2"
     inkscape:window-width="1920"
     inkscape:window-height="1024"
     id="namedview4"
     showgrid="false"
     inkscape:zoom="0.22124998"
     inkscape:cx="533.33337"
     inkscape:cy="533.33337"
     inkscape:window-x="0"
     inkscape:window-y="1108"
     inkscape:window-maximized="1"
     inkscape:current-layer="layer1" /><g
     inkscape:groupmode="layer"
     id="layer1"
     inkscape:label="fondo"
     transform="translate(0,-6.6666651e-6)"><ellipse
       style="fill:#ececec;fill-opacity:0.83435585;stroke:none;stroke-width:1.30973053;stroke-miterlimit:4;stroke-dasharray:none;stroke-dashoffset:0;stroke-opacity:1"
       id="path895"
       cx="533.33337"
       cy="533.33337"
       rx="476.83621"
       ry="501.2001"
       inkscape:export-filename="/home/deimidis/Proyectos/hacklab/sticker_redondo.png"
       inkscape:export-xdpi="96"
       inkscape:export-ydpi="96" /></g><g
     id="g10"
     inkscape:groupmode="layer"
     inkscape:label="hacklabLogo"
     transform="matrix(1.3333333,0,0,-1.3333333,0,1066.6667)"><g
       id="g14"
       transform="translate(-1.0948242e-4,1.0948242e-4)"
       inkscape:export-filename="/home/deimidis/Proyectos/hacklab/sticker_redondo.png"
       inkscape:export-xdpi="96"
       inkscape:export-ydpi="96"><g
         id="g16"
         clip-path="url(#clipPath20)"><g
           id="g22"
           transform="translate(470.3239,470.8625)"><path
             d="m 0,0 v -31.079 c 19.527,-2.356 34.708,-19.028 34.708,-39.18 0,-20.902 -16.345,-38.014 -36.919,-39.338 3.24,-5.726 5.123,-12.318 5.123,-19.354 0,-21.761 -17.704,-39.465 -39.465,-39.465 -14,0 -26.29,7.349 -33.297,18.371 -7.008,-11.022 -19.297,-18.371 -33.298,-18.371 -21.762,0 -39.466,17.704 -39.466,39.465 0,6.939 1.833,13.444 4.99,19.115 -20.509,1.39 -36.782,18.475 -36.782,39.331 0,20.151 15.181,36.823 34.708,39.18 V 0 c 0,8.984 -4.765,14.383 -14.569,16.501 -16.115,3.484 -25.499,14.02 -28.786,18.388 -13.508,17.958 -14.161,40.861 -1.84,62.985 2.067,56.546 53.315,102.281 115.038,102.281 61.745,0 113.004,-45.761 115.043,-102.334 5.1,-9.61 16.216,-36.729 -3.046,-62.882 C 36.223,26.9 26.533,20.25 15.563,16.696 L 15.291,16.614 C 9.521,15.034 -0.133,10.709 0,0"
             style="fill:#000000;fill-opacity:1;fill-rule:nonzero;stroke:none"
             id="path24"
             inkscape:connector-curvature="0" /></g><g
           id="g26"
           transform="translate(457.9883,470.8625)"><path
             d="m 0,0 v -70.259 c 0,-4.179 3.399,-7.578 7.577,-7.578 4.18,0 7.578,3.399 7.578,7.578 0,2.464 -1.199,4.635 -3.026,6.019 v 20.698 c 12.796,-2.175 22.579,-13.312 22.579,-26.717 0,-14.96 -12.171,-27.131 -27.131,-27.131 -14.332,0 -26.074,11.18 -27.036,25.274 V 0 c 0,3.338 -2.706,6.045 -6.045,6.045 h -0.246 c -3.338,0 -6.044,-2.707 -6.044,-6.045 v -128.951 c 0,-4.178 3.398,-7.577 7.576,-7.577 4.178,0 7.577,3.399 7.577,7.577 0,2.411 -1.152,4.536 -2.912,5.925 v 20.775 c 12.74,-2.222 22.465,-13.335 22.465,-26.7 0,-14.959 -12.171,-27.129 -27.13,-27.129 -14.957,0 -27.128,12.169 -27.129,27.126 0,0.001 0,0.002 0,0.002 V 12.062 c 0,3.339 -2.706,6.045 -6.045,6.045 h -0.246 c -3.338,0 -6.045,-2.706 -6.045,-6.045 v -141.013 c 0,0 0,-0.002 0,-0.003 -10e-4,-14.957 -12.171,-27.126 -27.129,-27.126 -14.961,0 -27.131,12.17 -27.131,27.129 0,10.065 5.522,18.849 13.685,23.532 0.328,0.173 0.651,0.354 0.974,0.536 2.415,1.256 5.041,2.15 7.81,2.632 v -20.771 c -1.762,-1.389 -2.917,-3.516 -2.917,-5.929 0,-4.178 3.399,-7.577 7.579,-7.577 4.178,0 7.577,3.399 7.577,7.577 L -83.16,0 h -0.021 c 0,3.338 -2.706,6.045 -6.044,6.045 h -0.246 c -3.339,0 -6.045,-2.707 -6.045,-6.045 h 0.003 l -0.058,-72.419 c -0.646,-9.196 -5.88,-17.127 -13.436,-21.527 -0.355,-0.186 -0.696,-0.394 -1.045,-0.59 -3.757,-1.971 -8.022,-3.101 -12.551,-3.101 -14.961,0 -27.132,12.171 -27.132,27.132 0,13.358 9.715,24.466 22.446,26.696 V -64.56 h 0.044 c -1.774,-1.388 -2.937,-3.524 -2.937,-5.945 0,-4.18 3.399,-7.579 7.579,-7.579 4.178,0 7.576,3.399 7.576,7.579 V 0 c 0,14.812 -8.856,25.22 -24.297,28.557 -12.063,2.607 -19.079,10.483 -21.534,13.747 -14.509,19.289 -6.513,39.852 -0.456,50.393 l 1.012,1.785 0.032,1.556 c 1.023,50.61 47.118,91.782 102.75,91.782 55.635,0 101.729,-41.172 102.753,-91.782 l 0.032,-1.556 0.766,-1.356 C 49.7,86.645 60.431,63.824 44.547,42.254 42.46,39.421 36.312,32.422 24.222,28.47 8.88,24.218 -0.166,13.629 0,0"
             style="fill:#ffffff;fill-opacity:1;fill-rule:nonzero;stroke:none"
             id="path28"
             inkscape:connector-curvature="0" /></g><g
           id="g30"
           transform="translate(418.4706,535.1856)"><path
             d="m 0,0 c 0,11.993 20.936,37.604 43.905,37.604 22.969,0 26.425,-39.84 11.789,-48.987 C 41.059,-20.53 0,-19.107 0,0"
             style="fill:#1d1d1b;fill-opacity:1;fill-rule:nonzero;stroke:none"
             id="path32"
             inkscape:connector-curvature="0" /></g><g
           id="g34"
           transform="translate(382.5006,535.1856)"><path
             d="m 0,0 c 0,11.993 -20.936,37.604 -43.905,37.604 -22.969,0 -26.425,-39.84 -11.789,-48.987 C -41.059,-20.53 0,-19.107 0,0"
             style="fill:#1d1d1b;fill-opacity:1;fill-rule:nonzero;stroke:none"
             id="path36"
             inkscape:connector-curvature="0" /></g><g
           id="g38"
           transform="translate(288.8569,225.469)"><path
             d="M 0,0 C 1.068,0 2.136,0.049 3.205,0.148 4.273,0.247 5.252,0.484 6.142,0.86 7.032,1.235 7.753,1.81 8.308,2.581 8.861,3.352 9.139,4.43 9.139,5.815 9.139,7.041 8.881,8.03 8.367,8.782 7.852,9.534 7.18,10.097 6.349,10.473 5.519,10.849 4.599,11.097 3.59,11.215 2.582,11.334 1.603,11.393 0.653,11.393 H -5.815 V 0 Z M -13.292,17.801 H 1.306 c 2.017,0 3.965,-0.188 5.845,-0.563 1.878,-0.377 3.55,-1.019 5.014,-1.929 1.463,-0.91 2.63,-2.135 3.501,-3.679 0.87,-1.543 1.306,-3.501 1.306,-5.874 0,-3.047 -0.841,-5.599 -2.523,-7.655 -1.682,-2.058 -4.085,-3.304 -7.209,-3.739 l 11.156,-18.573 h -9.02 l -9.732,17.802 h -5.459 v -17.802 h -7.477 z"
             style="fill:#1d1d1b;fill-opacity:1;fill-rule:nonzero;stroke:none"
             id="path40"
             inkscape:connector-curvature="0" /></g><path
           d="m 325.885,243.27 h 6.052 v -15.665 h -6.052 z"
           style="fill:#1d1d1b;fill-opacity:1;fill-rule:nonzero;stroke:none"
           id="path42"
           inkscape:connector-curvature="0" /><g
           id="g44"
           transform="translate(354.2483,243.2704)"><path
             d="m 0,0 h 7.477 v -35.248 h 17.861 v -6.764 H 0 Z"
             style="fill:#1d1d1b;fill-opacity:1;fill-rule:nonzero;stroke:none"
             id="path46"
             inkscape:connector-curvature="0" /></g><g
           id="g48"
           transform="translate(400.5931,219.2381)"><path
             d="m 0,0 -15.784,24.032 h 9.375 L 3.916,7.299 14.36,24.032 h 8.901 L 7.477,0 V -17.98 H 0 Z"
             style="fill:#1d1d1b;fill-opacity:1;fill-rule:nonzero;stroke:none"
             id="path50"
             inkscape:connector-curvature="0" /></g><g
           id="g52"
           transform="translate(439.5789,243.2704)"><path
             d="M 0,0 H 27.831 V -6.764 H 7.477 V -17.09 h 19.285 v -6.764 H 7.477 v -11.394 h 21.421 v -6.764 H 0 Z"
             style="fill:#1d1d1b;fill-opacity:1;fill-rule:nonzero;stroke:none"
             id="path54"
             inkscape:connector-curvature="0" /></g><g
           id="g56"
           transform="translate(487.7028,243.2704)"><path
             d="M 0,0 H 7.477 V -16.734 H 27.118 V 0 h 7.477 v -42.012 h -7.477 v 18.514 H 7.477 V -42.012 H 0 Z"
             style="fill:#1d1d1b;fill-opacity:1;fill-rule:nonzero;stroke:none"
             id="path58"
             inkscape:connector-curvature="0" /></g><g
           id="g60"
           transform="translate(233.7903,172.063)"><path
             d="M 0,0 H 4.272 V -18.218 H 27.178 V 0 h 4.272 v -42.013 h -4.272 v 19.879 H 4.272 V -42.013 H 0 Z"
             style="fill:#1d1d1b;fill-opacity:1;fill-rule:nonzero;stroke:none"
             id="path62"
             inkscape:connector-curvature="0" /></g><g
           id="g64"
           transform="translate(294.0195,145.0041)"><path
             d="M 0,0 H 18.218 L 9.139,22.074 Z m -6.23,-14.954 h -4.985 L 7.062,27.059 h 4.154 L 29.492,-14.954 H 24.508 L 19.879,-3.917 H -1.602 Z"
             style="fill:#1d1d1b;fill-opacity:1;fill-rule:nonzero;stroke:none"
             id="path66"
             inkscape:connector-curvature="0" /></g><g
           id="g68"
           transform="translate(375.6706,136.6963)"><path
             d="m 0,0 c -0.712,-1.068 -1.593,-2.077 -2.641,-3.027 -1.048,-0.948 -2.245,-1.77 -3.59,-2.462 -1.345,-0.692 -2.799,-1.236 -4.361,-1.632 -1.564,-0.395 -3.215,-0.593 -4.955,-0.593 -3.126,0 -6.023,0.554 -8.693,1.662 -2.671,1.106 -4.985,2.64 -6.943,4.598 -1.959,1.958 -3.492,4.282 -4.599,6.973 -1.108,2.689 -1.662,5.637 -1.662,8.841 0,3.204 0.554,6.151 1.662,8.842 1.107,2.69 2.64,5.014 4.599,6.972 1.958,1.958 4.272,3.491 6.943,4.599 2.67,1.108 5.567,1.661 8.693,1.661 2.611,0 5.222,-0.513 7.833,-1.542 2.611,-1.029 4.845,-2.729 6.705,-5.104 l -3.738,-2.789 c -0.436,0.673 -1.029,1.345 -1.781,2.018 -0.752,0.673 -1.612,1.266 -2.581,1.78 -0.97,0.514 -2.008,0.93 -3.115,1.247 -1.108,0.316 -2.216,0.474 -3.323,0.474 -2.691,0 -5.104,-0.495 -7.24,-1.484 -2.136,-0.988 -3.946,-2.314 -5.429,-3.975 -1.484,-1.662 -2.621,-3.59 -3.412,-5.785 -0.792,-2.196 -1.187,-4.501 -1.187,-6.914 0,-2.413 0.395,-4.717 1.187,-6.913 0.791,-2.195 1.928,-4.124 3.412,-5.785 1.483,-1.662 3.293,-2.988 5.429,-3.976 2.136,-0.99 4.549,-1.484 7.24,-1.484 1.107,0 2.205,0.098 3.293,0.297 1.088,0.197 2.156,0.534 3.205,1.009 1.047,0.475 2.037,1.117 2.966,1.928 0.93,0.811 1.79,1.83 2.582,3.056 z"
             style="fill:#1d1d1b;fill-opacity:1;fill-rule:nonzero;stroke:none"
             id="path70"
             inkscape:connector-curvature="0" /></g><g
           id="g72"
           transform="translate(398.9905,153.8453)"><path
             d="m 0,0 h 0.059 0.535 l 19.76,18.218 h 6.112 L 5.282,-0.831 27.653,-23.795 H 21.362 L 0.712,-2.136 H 0.059 0 V -23.795 H -4.272 V 18.218 H 0 Z"
             style="fill:#1d1d1b;fill-opacity:1;fill-rule:nonzero;stroke:none"
             id="path74"
             inkscape:connector-curvature="0" /></g><g
           id="g76"
           transform="translate(448.2421,133.967)"><path
             d="M 0,0 H 19.582 V -3.917 H -4.272 V 38.096 H 0 Z"
             style="fill:#1d1d1b;fill-opacity:1;fill-rule:nonzero;stroke:none"
             id="path78"
             inkscape:connector-curvature="0" /></g><g
           id="g80"
           transform="translate(491.0259,145.0041)"><path
             d="M 0,0 H 18.218 L 9.139,22.074 Z m -6.23,-14.954 h -4.985 L 7.062,27.059 h 4.154 L 29.492,-14.954 H 24.508 L 19.879,-3.917 H -1.602 Z"
             style="fill:#1d1d1b;fill-opacity:1;fill-rule:nonzero;stroke:none"
             id="path82"
             inkscape:connector-curvature="0" /></g><g
           id="g84"
           transform="translate(542.355,133.967)"><path
             d="m 0,0 h 8.189 c 1.542,0 2.986,0.157 4.331,0.475 1.345,0.316 2.512,0.8 3.502,1.454 0.988,0.652 1.77,1.472 2.343,2.462 0.573,0.989 0.861,2.175 0.861,3.56 0,2.769 -0.89,4.827 -2.671,6.171 -1.779,1.345 -4.391,2.018 -7.833,2.018 H 0 Z m 0,19.701 h 8.604 c 1.028,0 2.047,0.128 3.056,0.385 1.008,0.257 1.918,0.683 2.729,1.276 0.811,0.593 1.474,1.355 1.989,2.285 0.514,0.928 0.771,2.066 0.771,3.412 0,0.435 -0.089,1.047 -0.267,1.839 -0.178,0.791 -0.575,1.582 -1.187,2.374 -0.614,0.791 -1.513,1.473 -2.7,2.047 -1.187,0.573 -2.789,0.86 -4.806,0.86 L 0,34.179 Z M -4.273,38.096 H 8.248 c 1.74,0 3.421,-0.178 5.044,-0.534 1.621,-0.356 3.065,-0.949 4.332,-1.78 1.266,-0.831 2.274,-1.92 3.026,-3.264 0.751,-1.345 1.128,-3.007 1.128,-4.984 0,-2.296 -0.644,-4.263 -1.929,-5.904 -1.286,-1.642 -3.115,-2.74 -5.489,-3.294 v -0.119 c 2.966,-0.237 5.29,-1.276 6.972,-3.116 1.681,-1.839 2.523,-4.302 2.523,-7.387 0,-0.673 -0.169,-1.662 -0.505,-2.967 C 23.013,3.441 22.311,2.145 21.243,0.86 20.176,-0.426 18.632,-1.544 16.615,-2.492 14.597,-3.442 11.907,-3.917 8.545,-3.917 H -4.273 Z"
             style="fill:#1d1d1b;fill-opacity:1;fill-rule:nonzero;stroke:none"
             id="path86"
             inkscape:connector-curvature="0" /></g></g></g></g></svg>