<?xml version="1.0" encoding="UTF-8" standalone="no"?>
<!-- Created with Inkscape (http://www.inkscape.org/) -->

<svg
   xmlns:dc="http://purl.org/dc/elements/1.1/"
   xmlns:cc="http://creativecommons.org/ns#"
   xmlns:rdf="http://www.w3.org/1999/02/22-rdf-syntax-ns#"
   xmlns:svg="http://www.w3.org/2000/svg"
   xmlns="http://www.w3.org/2000/svg"
   xmlns:sodipodi="http://sodipodi.sourceforge.net/DTD/sodipodi-0.dtd"
   xmlns:inkscape="http://www.inkscape.org/namespaces/inkscape"
   id="svg3476"
   version="1.1"
   inkscape:version="0.91 r13725"
   width="1350"
   height="1557"
   viewBox="0 0 1350 1557"
   sodipodi:docname="logo3.svg"
   inkscape:export-filename="/home/mini/Desktop/rlyeh-logo.png"
   inkscape:export-xdpi="90"
   inkscape:export-ydpi="90"
   style="shape-rendering:crispEdges">
  <metadata
     id="metadata3482">
    <rdf:RDF>
      <cc:Work
         rdf:about="">
        <dc:format>image/svg+xml</dc:format>
        <dc:type
           rdf:resource="http://purl.org/dc/dcmitype/StillImage" />
        <dc:title></dc:title>
      </cc:Work>
    </rdf:RDF>
  </metadata>
  <defs
     id="defs3480" />
  <sodipodi:namedview
     pagecolor="#000000"
     bordercolor="#666666"
     borderopacity="1"
     objecttolerance="10"
     gridtolerance="10"
     guidetolerance="10"
     inkscape:pageopacity="1"
     inkscape:pageshadow="2"
     inkscape:window-width="1596"
     inkscape:window-height="857"
     id="namedview3478"
     showgrid="false"
     inkscape:zoom="0.34452555"
     inkscape:cx="85.500576"
     inkscape:cy="819.83021"
     inkscape:window-x="0"
     inkscape:window-y="20"
     inkscape:window-maximized="0"
     inkscape:current-layer="svg3476"
     units="mm"
     showguides="false" />
  <path
     style="fill:#ffffff;fill-opacity:1;fill-rule:evenodd;stroke:none;stroke-width:1px;stroke-linecap:butt;stroke-linejoin:miter;stroke-opacity:1"
     d="m 474.10611,643.16561 c 4.67167,-10.18141 10.91481,-22.11043 13.85375,-34.89093 -7.91472,-15.74462 -9.04347,-27.21573 -11.80134,-44.63986 2.06751,-25.28663 2.4686,-64.66937 32.32541,-104.15968 6.28554,-14.43153 34.09156,-33.55413 60.20899,-44.16322 17.46338,-9.73745 53.35103,-19.00604 111.68013,-26.64483 69.5644,7.47333 73.20253,18.81373 109.8038,28.2206 21.34315,13.77564 28.1185,11.36484 65.16393,42.58745 20.72527,26.60418 32.77882,52.41348 31.81232,100.05486 -1.68713,35.78396 -7.18056,37.31118 -10.77514,55.92811 8.24658,8.28591 10.33054,18.11247 13.34065,27.7075 -16.94499,36.14131 -31.05093,80.37923 -45.15296,105.69898 12.19749,4.22001 0.27815,13.57145 5.64411,20.52407 -1.5219,8.0753 0.0786,12.50779 -6.67032,26.6813 -5.0165,6.84136 5.79206,24.97095 -4.61792,31.81231 -42.0245,26.04288 -326.76153,37.4105 -317.3958,-4.87336 -8.18119,-6.37421 2.18418,-14.95061 -3.42191,-26.47501 -3.43915,-7.61165 -5.0206,-16.33792 -3.62817,-26.84852 1.28075,-26.76234 -33.72047,-93.6484 -40.36953,-126.51977 z"
     id="path3497"
     inkscape:connector-curvature="0"
     sodipodi:nodetypes="ccccccccccccccccccc" />
  <path
     style="fill:#000000;fill-opacity:1;fill-rule:evenodd;stroke:none;stroke-width:1px;stroke-linecap:butt;stroke-linejoin:miter;stroke-opacity:1"
     d="m 659.07933,784.01206 8.72273,18.21512 -18.72822,15.1365 z"
     id="path3499"
     inkscape:connector-curvature="0" />
  <path
     style="fill:#000000;fill-opacity:1;fill-rule:evenodd;stroke:none;stroke-width:1px;stroke-linecap:butt;stroke-linejoin:miter;stroke-opacity:1"
     d="m 696.79231,801.71408 9.49239,-16.93236 8.46618,31.04266 z"
     id="path3501"
     inkscape:connector-curvature="0" />
  <path
     style="fill:#000000;fill-opacity:1;fill-rule:evenodd;stroke:none;stroke-width:1px;stroke-linecap:butt;stroke-linejoin:miter;stroke-opacity:1"
     d="m 603.40778,761.43558 c 20.63146,-8.36316 36.98201,-20.15106 52.84949,-32.32541 l -54.13225,-27.96406 -19.49787,-13.85375 -31.55576,11.28825 c 10.12407,0.63852 20.07457,0.84314 32.06886,6.15722 l -16.16271,5.38757 c -8.74223,13.68271 -5.30637,27.36543 -7.18342,41.04814 14.53789,7.65725 29.07577,8.03692 43.61366,10.26204 z"
     id="path3503"
     inkscape:connector-curvature="0"
     sodipodi:nodetypes="ccccccccc" />
  <path
     style="fill:#000000;fill-opacity:1;fill-rule:evenodd;stroke:none;stroke-width:1px;stroke-linecap:butt;stroke-linejoin:miter;stroke-opacity:1"
     d="m 708.3371,729.62327 c 17.53098,-9.23583 48.26722,-21.81221 52.59294,-27.7075 4.17525,-1.75122 14.01937,-10.60772 21.03718,-15.90616 13.94754,1.4467 23.86194,6.35037 31.04266,13.5972 -10.86066,-0.41248 -21.72131,-0.72689 -32.58197,3.59171 l 15.64961,6.41377 8.20963,31.29922 0,10.51859 c -11.35539,6.00455 -24.92147,9.79842 -42.07435,10.00548 -21.13872,-6.3639 -38.53039,-17.72386 -53.8757,-31.81231 z"
     id="path3505"
     inkscape:connector-curvature="0"
     sodipodi:nodetypes="cccccccccc" />
  <path
     style="fill:#000000;fill-opacity:1;fill-rule:evenodd;stroke:none;stroke-width:1px;stroke-linecap:butt;stroke-linejoin:miter;stroke-opacity:1"
     d="m 636.50284,605.19607 -0.5131,31.55576 99.54176,0 -0.5131,-65.16393 -31.55576,0.5131 -1.02621,-33.09507 -34.63437,0.25655 0,33.09507 35.66058,0.25655 -0.76966,33.35162 z"
     id="path3507"
     inkscape:connector-curvature="0" />
  <path
     style="fill:#ffffff;fill-rule:evenodd;stroke:none;stroke-width:5.4000001;stroke-linecap:butt;stroke-linejoin:miter;stroke-miterlimit:4;stroke-dasharray:none;stroke-opacity:1"
     d="m 841.83918,822.96379 c 14.66725,17.07892 39.70429,24.00356 49.50677,36.2177 22.52785,20.44011 46.99808,42.37706 55.39363,85.41505 4.07966,19.61231 8.05894,39.72649 10.24064,68.82856 -0.10984,22.3761 0.26138,44.7522 -1.67889,67.1283 -0.98086,44.2852 -13.1682,57.518 -15.99423,64.8998 -16.63076,20.0607 -57.80001,32.9579 -70.4042,44.5822 -34.48508,30.1765 -39.36545,40.5613 -46.63451,55.7242 -10.85428,17.7804 -11.12419,17.0039 -20.47252,34.5175 -7.12104,18.8259 -13.34345,47.1541 -14.19963,75.8874 -10.52944,-37.1192 -11.19211,-44.8149 -5.62902,-66.7548 5.14255,-26.022 1.43516,-34.1251 12.84265,-56.0891 9.55847,-17.9912 26.32788,-45.1672 37.38976,-60.1208 13.04416,-15.7889 48.60634,-32.1736 62.43493,-51.6103 6.83335,-13.8627 7.84064,-33.5516 9.02583,-53.0625 -3.20065,-28.7337 4.50673,-63.6246 -9.23583,-92.35829 -15.39306,-33.77429 -37.96953,-39.1145 -54.38879,-49.25779 l -11.80135,-1.0262 c -0.0286,24.27954 4.33871,32.66245 4.33871,32.66245 10.79421,13.46403 14.43728,22.16064 19.77708,31.98839 8.90679,23.95124 8.5224,40.86744 8.6347,61.14714 -5.60708,20.5141 -8.7765,33.9123 -26.08017,46.6042 -23.62301,14.1933 -30.80696,24.9992 -49.33071,38.9228 -9.12115,7.4988 -16.53782,17.4577 -20.04742,24.2768 -19.13273,24.0725 -17.47385,40.0491 -19.90158,60.9711 -7.14969,-22.9185 -8.44227,-45.8371 -2.05242,-68.7556 12.14207,-25.3139 39.91616,-46.7373 57.71641,-68.2791 18.83198,-18.5965 21.36232,-40.2496 9.23583,-64.6508 l -54.98993,-84.74099 c 0.2336,32.16863 12.51467,64.33729 -1.0262,96.50589 -20.24338,38.3612 -44.13223,76.2667 -49.70341,116.4619 -0.28257,-13.8982 -8.90099,-20.5112 -5.35945,-45.5809 -2.59414,-20.8939 15.3387,-38 20.46975,-55.1176 l 5.18534,-43.398 c -0.0668,-36.05179 -26.7561,-58.01908 -47.73818,-78.85974 l 5.3419,-91.70367"
     id="path4214"
     inkscape:connector-curvature="0"
     sodipodi:nodetypes="cccccccccccccccccccccccccccccccccccc" />
  <path
     style="fill:none;fill-rule:evenodd;stroke:#ffffff;stroke-width:7.891;stroke-linecap:butt;stroke-linejoin:miter;stroke-opacity:1;stroke-miterlimit:4;stroke-dasharray:none"
     d="M 692.71388,94.65186 1204.8894,975.1327 690.12143,1536.3439 151.30817,974.68431 Z"
     id="path4239"
     inkscape:connector-curvature="0"
     sodipodi:nodetypes="ccccc" />
  <path
     style="fill:#ffffff;fill-rule:evenodd;stroke:none;stroke-width:5.4000001;stroke-linecap:butt;stroke-linejoin:miter;stroke-miterlimit:4;stroke-dasharray:none;stroke-opacity:1;shape-rendering:crispEdges"
     d="m 527.19832,823.0519 c -14.66725,17.07892 -39.70429,24.00356 -49.50677,36.2177 -22.52785,20.44011 -46.99808,42.37706 -55.39363,85.41505 -4.07966,19.61231 -8.05894,39.72649 -10.24064,68.82855 0.10984,22.3761 -0.26138,44.7522 1.67889,67.1283 0.98086,44.2852 13.1682,57.518 15.99423,64.8998 16.63076,20.0607 57.80001,32.9579 70.4042,44.5822 34.48508,30.1765 39.36545,40.5613 46.63451,55.7242 10.85428,17.7804 11.12419,17.0039 20.47252,34.5175 7.12104,18.8259 13.34345,47.1541 14.19963,75.8874 10.52944,-37.1192 11.19211,-44.8149 5.62902,-66.7548 -5.14255,-26.022 -1.43516,-34.1251 -12.84265,-56.0891 -9.55847,-17.9912 -26.32788,-45.1672 -37.38976,-60.1208 -13.04416,-15.7889 -48.60634,-32.1736 -62.43493,-51.6103 -6.83335,-13.8627 -7.84064,-33.5516 -9.02583,-53.0625 3.20065,-28.7337 -4.50673,-63.6246 9.23583,-92.35828 15.39306,-33.77429 37.96953,-39.1145 54.38879,-49.25779 l 11.80135,-1.0262 c 0.0286,24.27954 -4.33871,32.66245 -4.33871,32.66245 -10.79421,13.46403 -14.43728,22.16064 -19.77708,31.98842 -8.90679,23.9512 -8.5224,40.8674 -8.6347,61.1471 5.60708,20.5141 8.7765,33.9123 26.08017,46.6042 23.62301,14.1933 30.80696,24.9992 49.33071,38.9228 9.12115,7.4988 16.53782,17.4577 20.04742,24.2768 19.13273,24.0725 17.47385,40.0491 19.90158,60.9711 7.14969,-22.9185 8.44227,-45.8371 2.05242,-68.7556 -12.14207,-25.3139 -39.91616,-46.7373 -57.71641,-68.2791 -18.83198,-18.5965 -21.36232,-40.2496 -9.23583,-64.6508 l 54.98993,-84.74098 c -0.2336,32.16863 -12.51467,64.33728 1.0262,96.50588 20.24338,38.3612 44.13223,76.2667 49.70341,116.4619 0.28257,-13.8982 8.90099,-20.5112 5.35945,-45.5809 2.59414,-20.8939 -15.3387,-38 -20.46975,-55.1176 l -5.18534,-43.398 c 0.0668,-36.05178 22.40228,-59.47034 43.38436,-80.311 l -0.98808,-90.2524"
     id="path4214-3"
     inkscape:connector-curvature="0"
     sodipodi:nodetypes="cccccccccccccccccccccccccccccccccccc" />
</svg>
