<?xml version="1.0" encoding="UTF-8" standalone="no"?>
<!-- Created with Inkscape (http://www.inkscape.org/) -->

<svg
   xmlns:dc="http://purl.org/dc/elements/1.1/"
   xmlns:cc="http://creativecommons.org/ns#"
   xmlns:rdf="http://www.w3.org/1999/02/22-rdf-syntax-ns#"
   xmlns:svg="http://www.w3.org/2000/svg"
   xmlns="http://www.w3.org/2000/svg"
   xmlns:sodipodi="http://sodipodi.sourceforge.net/DTD/sodipodi-0.dtd"
   xmlns:inkscape="http://www.inkscape.org/namespaces/inkscape"
   id="svg3476"
   version="1.1"
   inkscape:version="0.91 r13725"
   width="1350"
   height="1557"
   viewBox="0 0 1350 1557"
   sodipodi:docname="logo5.svg"
   inkscape:export-filename="/home/mini/Desktop/rlyeh-logo-sin-fondo.png"
   inkscape:export-xdpi="99.360268"
   inkscape:export-ydpi="99.360268"
   style="shape-rendering:crispEdges">
  <metadata
     id="metadata3482">
    <rdf:RDF>
      <cc:Work
         rdf:about="">
        <dc:format>image/svg+xml</dc:format>
        <dc:type
           rdf:resource="http://purl.org/dc/dcmitype/StillImage" />
        <dc:title></dc:title>
      </cc:Work>
    </rdf:RDF>
  </metadata>
  <defs
     id="defs3480" />
  <sodipodi:namedview
     pagecolor="#ffffff"
     bordercolor="#666666"
     borderopacity="1"
     objecttolerance="10"
     gridtolerance="10"
     guidetolerance="10"
     inkscape:pageopacity="0"
     inkscape:pageshadow="2"
     inkscape:window-width="1596"
     inkscape:window-height="857"
     id="namedview3478"
     showgrid="false"
     inkscape:zoom="0.34452555"
     inkscape:cx="-81.520168"
     inkscape:cy="714.86312"
     inkscape:window-x="0"
     inkscape:window-y="20"
     inkscape:window-maximized="0"
     inkscape:current-layer="svg3476"
     units="mm"
     showguides="true"
     borderlayer="true">
    <inkscape:grid
       type="xygrid"
       id="grid5244" />
  </sodipodi:namedview>
  <path
     style="fill:#000000;fill-opacity:1;fill-rule:evenodd;stroke:#000000;stroke-width:10.734;stroke-linecap:round;stroke-linejoin:miter;stroke-miterlimit:4;stroke-dasharray:none;stroke-opacity:1"
     d="m 660.71123,327.18171 c -40.45618,1.8144 -85.37217,18.0192 -101.58744,24.23645 -22.10708,12.29061 -35.18963,17.80295 -54.76844,40.17119 -25.17852,36.58169 -29.47085,72.44614 -31.35152,95.44767 1.16475,15.97839 -0.16665,28.19269 2.10015,45.9735 1.57123,14.18108 3.6469,31.46275 3.91601,46.20588 6.04819,29.90084 30.00466,77.67413 32.10679,94.55026 2.08001,22.44881 4.10171,43.63739 5.00996,53.82281 -13.43238,11.85695 -29.64864,17.9055 -39.7917,27.66543 -44.51915,44.43517 -42.89894,49.37554 -53.3568,79.01727 -8.66145,23.45049 -12.04657,41.73773 -14.03111,68.20991 0.0999,20.3541 -2.22596,34.9918 0.85909,57.986 8.50635,31.3957 10.38419,38.5263 22.9027,55.18882 15.12786,18.2479 52.57658,29.9792 64.04175,40.5531 31.36872,27.4495 30.85838,29.3058 44.73121,49.3691 7.56319,12.8733 11.10851,18.7679 16.31175,32.7187 10.76791,19.1047 12.13732,42.8916 12.91614,69.0282 14.45766,-26.2686 12.06629,-33.7986 9.08047,-61.0516 -3.68773,-21.0301 -9.55554,-29.0611 -15.64176,-50.6905 -10.67488,-29.8965 -20.31906,-41.0859 -34.01164,-54.6881 -11.86538,-14.362 -41.57403,-31.2451 -56.79319,-46.94512 -10.50622,-12.2799 -18.33259,-26.7857 -19.41068,-44.5334 -0.0588,-26.1371 7.10161,-61.61087 19.60227,-87.74794 14.00201,-30.72213 40.14941,-39.20791 55.08489,-48.43457 l 5.12369,2.69597 c 4.39865,19.45881 -0.0418,21.79653 -3.94568,29.70996 -11.79893,16.20769 -12.80309,19.16832 -17.99037,29.09811 -5.46166,23.43687 -9.7323,37.17547 -7.85427,55.62257 3.12019,21.3005 7.98351,30.8476 23.72348,42.3924 21.48823,12.9108 21.75154,13.4982 38.60132,26.1637 6.81323,6.82112 15.2069,11.59012 28.13763,29.34402 12.12324,24.5373 12.26406,38.4097 14.47241,57.4409 11.63765,-19.9139 6.02872,-40.7035 0.21632,-61.551 -11.04482,-23.0263 -32.0182,-43.83342 -54.81047,-61.11832 -12.45403,-11.2999 -18.14238,-19.9566 -16.58245,-37.3442 1.6064,-17.9055 5.26448,-25.1736 7.85055,-30.37749 19.10029,-47.53409 35.98724,-45.44664 52.66086,-71.14073 -0.21249,29.26157 -9.73248,59.51229 2.58472,88.77392 18.41403,34.8946 40.1431,69.3757 45.21082,105.93862 3.52417,-7.5082 8.09672,-18.6588 4.87522,-41.46302 -3.91087,-19.6658 -13.95343,-34.5647 -18.6208,-50.1355 -4.79016,-17.4501 -3.14281,-26.3188 -4.71452,-39.47772 0.0553,-29.88392 16.93278,-50.21547 34.3701,-67.9355 18.32624,17.85678 39.40253,37.27618 39.45919,67.8564 -1.4775,12.94552 -0.0847,19.43262 -4.71701,39.47642 -3.63992,17.4575 -10.27503,23.2804 -18.6208,50.1368 -3.2215,22.80432 0.88445,36.28652 7.20901,47.52852 5.06772,-36.56282 24.46303,-77.10952 42.87704,-112.00412 12.3172,-29.26163 1.147,-58.52348 0.9345,-87.78504 l 50.02177,77.08274 c 11.03064,22.1961 8.7283,41.8934 -8.40185,58.8093 -16.19168,20.1269 -44.75692,36.446 -52.50142,62.10722 -6.09586,19.7136 -10.28359,36.8398 1.86777,62.5424 1.54827,-20.6815 -1.61117,-33.2335 15.79257,-55.1306 7.48284,-8.5131 12.24977,-15.5921 20.54666,-22.4132 16.84979,-12.66542 23.38389,-22.49412 44.87213,-35.40482 15.73996,-11.5449 18.62185,-23.7321 23.72223,-42.3924 3.19815,-18.4471 0.24765,-33.8359 -7.85425,-55.62262 -4.85725,-8.93967 -8.17163,-16.84956 -17.99039,-29.09688 0,0 -8.59228,-11.25623 -8.56625,-33.34166 5.11324,1.51769 4.97624,-0.46428 15.35498,4.56373 14.93548,9.22665 35.47211,14.08445 49.47417,44.80659 12.50065,26.13715 18.55863,50.40794 21.47003,76.54504 -1.07807,17.7477 -15.06259,43.1252 -21.27843,55.7351 -11.80414,17.06042 -41.63762,29.95082 -56.79319,46.94512 -15.45444,17.4538 -21.57265,28.7025 -34.0104,54.6881 -10.37662,19.979 -12.28531,27.0213 -15.97305,51.0218 -1.43002,18.967 -5.76818,32.3642 9.41053,60.7215 0.7788,-26.1367 1.48798,-46.6242 7.9655,-63.7488 6.34858,-17.2778 8.36118,-24.7503 19.6134,-40.3096 14.86293,-17.753 15.01146,-19.608 46.38018,-47.0576 11.46518,-10.5738 48.91388,-22.3066 64.04175,-40.5544 8.51125,-11.0051 21.67143,-21.27882 24.43051,-50.36042 2.095,-21.3442 4.06818,-34.1153 0.53771,-54.4694 -2.97459,-27.4622 -6.57476,-47.16515 -14.57621,-78.53635 -16.21755,-34.52828 -33.52611,-58.44157 -54.01812,-77.03453 -8.75518,-10.90921 -27.13,-17.18754 -40.55809,-32.11792 0.18936,-17.82429 2.70768,-32.9678 3.13848,-49.5607 -1.67012,-22.28348 17.95759,-65.1018 28.47263,-94.28078 3.027,-14.79548 2.52179,-23.73305 4.17681,-41.53832 1.72309,-19.57479 -0.0656,-24.17616 0.95553,-55.07623 0.87922,-43.33611 -10.08506,-66.8125 -28.93741,-91.0125 -18.29547,-17.66621 -37.05926,-25.74228 -59.27406,-38.73976 -23.02554,-9.02353 -61.34052,-25.87092 -99.88161,-25.66788 z M 557.80857,643.21737 c 12.08217,0.48157 24.93797,-0.18596 36.30586,11.06321 11.22834,13.20196 22.72967,35.34822 32.60741,52.85741 -21.23757,4.7296 -42.90197,5.92322 -65.34585,0.64031 -22.31164,-12.25111 -27.90266,-19.09465 -32.83239,-31.02272 0.0916,-3.45099 1.682,-11.6236 3.51303,-14.79504 4.29463,-6.81588 15.54209,-16.00217 25.75194,-18.74317 z m 207.87582,0.0692 c 10.9391,1.61269 23.48327,10.7138 27.27111,20.98919 1.83105,3.17144 1.90102,9.09804 1.99262,12.54901 -4.92973,11.92808 -10.51951,18.77162 -32.83115,31.02272 -22.44389,5.28291 -44.10829,4.0893 -65.34586,-0.64031 9.87775,-17.50918 21.37907,-39.65545 32.60742,-52.85741 11.36788,-11.24916 24.22368,-10.58163 36.30586,-11.0632 z"
     id="path3497"
     inkscape:connector-curvature="0" />
</svg>
