<?xml version="1.0" encoding="UTF-8" standalone="no"?>
<!-- Generator: Adobe Illustrator 22.0.0, SVG Export Plug-In . SVG Version: 6.00 Build 0)  -->

<svg
   xmlns:dc="http://purl.org/dc/elements/1.1/"
   xmlns:cc="http://creativecommons.org/ns#"
   xmlns:rdf="http://www.w3.org/1999/02/22-rdf-syntax-ns#"
   xmlns:svg="http://www.w3.org/2000/svg"
   xmlns="http://www.w3.org/2000/svg"
   xmlns:sodipodi="http://sodipodi.sourceforge.net/DTD/sodipodi-0.dtd"
   xmlns:inkscape="http://www.inkscape.org/namespaces/inkscape"
   version="1.1"
   id="Capa_1"
   x="0px"
   y="0px"
   viewBox="0 0 850.4 850.4"
   style="enable-background:new 0 0 850.4 850.4;"
   xml:space="preserve"
   sodipodi:docname="Rlyeh_Logo_panuelo.svg"
   inkscape:version="0.92.2 2405546, 2018-03-11"><metadata
   id="metadata29"><rdf:RDF><cc:Work
       rdf:about=""><dc:format>image/svg+xml</dc:format><dc:type
         rdf:resource="http://purl.org/dc/dcmitype/StillImage" /><dc:title></dc:title></cc:Work></rdf:RDF></metadata><defs
   id="defs27" /><sodipodi:namedview
   pagecolor="#ffffff"
   bordercolor="#666666"
   borderopacity="1"
   objecttolerance="10"
   gridtolerance="10"
   guidetolerance="10"
   inkscape:pageopacity="0"
   inkscape:pageshadow="2"
   inkscape:window-width="1193"
   inkscape:window-height="770"
   id="namedview25"
   showgrid="false"
   inkscape:zoom="0.27751645"
   inkscape:cx="425.20001"
   inkscape:cy="425.20001"
   inkscape:window-x="0"
   inkscape:window-y="0"
   inkscape:window-maximized="0"
   inkscape:current-layer="Capa_1" />
<style
   type="text/css"
   id="style2">
	.st0{fill:#FFFFFF;}
	.st1{fill:#0D8555;}
</style>


<g
   id="g4548"><path
     id="path6"
     d="M342.4,658.4c-19.1,4-30.4,14.4-36.8,30.9c-9.5,24.3,6,54.1,32.1,60.7c32.7,8.3,59.8-16.3,59.7-47.2  c-0.4-78.9-0.1-211.2-0.1-290.2c0-2,0-4,0-6c0.1-6.3,4.1-9.1,9.6-9.8c5.8-0.8,10.4,3,11.1,9c0.5,3.9,0.3,8,0.3,12  c0,76.3,0,205.9,0.1,282.2c0,12.6,2.5,24.5,10.8,34.8c14.7,18.3,44.1,22.5,62.9,8.5c17.7-13.1,24.2-32.2,18-53.5  c-4.6-16.1-20.1-29.2-36.7-30.3c1.7,13.5-3.5,27.1,3.7,40.3c4.1,7.4-1.3,16.2-9.7,17.2c-9.4,1.1-14.9-4.3-14.9-14.8  c0-72.5,0-198.3,0-270.8c0-2.2,0.1-4.5,0.8-6.5c2.8-8.1,10.7-10.6,16.6-4.5c2.5,2.5,3.4,7.5,3.5,11.4c0.3,37.6,0.1,128.5,0.2,166.1  c0,5.3,0.4,10.7,1.5,15.8c6.3,29.4,38.5,45.1,66.1,31.5c29.3-14.5,35.4-50.3,13.4-74.5c-6.8-7.5-15.2-12.9-26.5-13.6  c0,11.5-0.1,22.1,0.1,32.7c0,1.4,0.8,3,1.7,4.1c4,5.5,5,12.5,1.4,16.4c-3.4,3.8-7.5,7.1-13.4,5.5c-6.8-2-10.3-6.9-10.3-14.5  c0-41.1-0.1-135.6,0.1-176.8c0.1-12.5,5.6-22.8,14.6-31.5c8.8-8.5,19.8-12.2,30.9-16.1c12.9-4.5,23.9-12,31.7-23.1  c18.9-26.6,17.7-54.6,4.5-83.1c-2-4.3-3.7-9.1-3.9-13.8c-1.3-33.2-13.2-62.4-33.9-87.7c-36.3-44.3-84.4-65.7-141-67  c-42.9-1-82.2,11.7-116.8,37.6c-22.4,16.8-39.6,37.9-51.1,63.3c-8,17.6-12.9,36.3-12.9,56c0,2.5-0.5,5.4-1.8,7.6  c-9.4,15.6-13.6,32.4-13.3,50.6c0.5,26.2,22.3,54.3,49,60.1c28.2,6.2,45.3,23.2,44.5,55.2c-0.8,32-0.1,117.4-0.2,149.4  c0,7.3,0,14.7-0.2,22c-0.1,7-5.1,10.3-10.7,12.2c-5.3,1.8-9.4-1.5-12.6-5.5c-3.8-4.7-3.7-9.7-0.5-14.8c1.1-1.8,2.6-3.9,2.6-5.9  c0.3-9.8,0.3-19.6,0-29.3c0-1.1-3-3.4-4-3.1c-14.8,4.5-26.2,13.7-31.7,28.1c-10.7,28,5.4,56.5,33,63.3c28.7,7.1,57.7-15.5,57.8-45.3  c0-16,0.2-32,0.2-48c0-24-0.1-101.4,0.1-125.4c0-3.3,0.7-7.7,2.9-9.6c2.6-2.2,7.4-3.5,10.6-2.8c5.8,1.4,7.6,6.5,7.6,12.5  c-0.1,72.5-0.1,198.3-0.1,270.8c0,2.4-0.2,4.9-0.9,7.2c-1.5,4.9-4.9,7.6-10.1,8.4c-5.9,0.9-11.2-1-13.6-6.1c-1.6-3.3-2.1-9-0.3-11.9  C346.5,685.9,339.9,672.4,342.4,658.4z"
     class="st0" /><g
     id="g22">
	<g
   id="g14">
		<path
   id="path8"
   d="M427.6,742.7c-26.9,34.2-63.8,36.3-88.9,22.7c-34.8-18.8-43.8-46-31.4-93.3c-38.2-8-60.5-30.9-61.9-70.7    c-0.6-16.7,6.1-32.1,17.4-44.9c11.1-12.5,25.7-19.2,41.8-22.9c0-20.7,0.5-94.3-0.2-114.5c-0.3-9.5-10.6-17.2-23-20    c-26.8-6-46.7-21.2-59.1-45.8c-14.3-28.3-13.2-56.8-0.1-85c4.3-9.1,5-18.7,6.5-28.2c5.5-36,20.6-67.1,45.1-94.1    c26.3-29.1,58.5-48.4,95.9-58.8c35.6-9.9,71.6-10.3,107.9-1.7c30.6,7.2,58,20.6,82.2,40.2c29.3,23.8,50.2,53.9,61,90.3    c2.7,9.1,3.1,18.8,5.3,28c2.7,11.1,5.7,22.2,9.4,33c13.3,38.6,1.8,86.4-34.3,108.8c-10.4,6.4-22.1,10.9-33.4,15.7    c-10.6,4.6-18.2,11.8-18.7,23.5c-0.8,17.9-0.2,89.3-0.2,105.7c11.5,5.7,22.9,9.8,32.5,16.5c24.4,17.1,33,46.5,24.5,75.6    c-6.5,22.3-22.2,36.1-43,44.8c-3.4,1.4-7.4,1.5-11.1,2.2c-4.2,0.8-5.3,2.8-3.6,7.1c17,40.8-5.6,85-48.6,94.5    c-27.4,6.1-51.3-2.9-69.2-25.3C429.7,745.1,428.8,744.1,427.6,742.7z M362,657.7c-19.1,4-30.4,14.4-36.8,30.9    c-9.5,24.3,6,54.1,32.1,60.7c32.7,8.3,59.8-16.3,59.7-47.2c-0.4-78.9-0.1-211.2-0.1-290.2c0-2,0-4,0-6c0.1-6.3,4.1-9.1,9.6-9.8    c5.8-0.8,10.4,3,11.1,9c0.5,3.9,0.3,8,0.3,12c0,76.3,0,205.9,0.1,282.2c0,12.6,2.5,24.5,10.8,34.8c14.7,18.3,44.1,22.5,62.9,8.5    c17.7-13.1,24.2-32.2,18-53.5c-4.6-16.1-20.1-29.2-36.7-30.3c1.7,13.5-3.5,27.1,3.7,40.3c4.1,7.4-1.3,16.2-9.7,17.2    c-9.4,1.1-14.9-4.3-14.9-14.8c0-72.5,0-198.3,0-270.8c0-2.2,0.1-4.5,0.8-6.5c2.8-8.1,10.7-10.6,16.6-4.5c2.5,2.5,3.4,7.5,3.5,11.4    c0.3,37.6,0.1,128.5,0.2,166.1c0,5.3,0.4,10.7,1.5,15.8c6.3,29.4,38.5,45.1,66.1,31.5c29.3-14.5,35.4-50.3,13.4-74.5    c-6.8-7.5-15.2-12.9-26.5-13.6c0,11.5-0.1,22.1,0.1,32.7c0,1.4,0.8,3,1.7,4.1c4,5.5,5,12.5,1.4,16.4c-3.4,3.8-7.5,7.1-13.4,5.5    c-6.8-2-10.3-6.9-10.3-14.5c0-41.1-0.1-135.6,0.1-176.8c0.1-12.5,5.6-22.8,14.6-31.5c8.8-8.5,19.8-12.2,30.9-16.1    c12.9-4.5,23.9-12,31.7-23.1c18.9-26.6,17.7-54.6,4.5-83.1c-2-4.3-3.7-9.1-3.9-13.8c-1.3-33.2-13.2-62.4-33.9-87.7    c-36.3-44.3-84.4-65.7-141-67c-42.9-1-82.2,11.7-116.8,37.6c-22.4,16.8-39.6,37.9-51.1,63.3c-8,17.6-12.9,36.3-12.9,56    c0,2.5-0.5,5.4-1.8,7.6c-9.4,15.6-13.6,32.4-13.3,50.6c0.5,26.2,22.3,54.3,49,60.1c28.2,6.2,45.3,23.2,44.5,55.2    c-0.8,32-0.1,117.4-0.2,149.4c0,7.3,0,14.7-0.2,22c-0.1,7-5.1,10.3-10.7,12.2c-5.3,1.8-9.4-1.5-12.6-5.5    c-3.8-4.7-3.7-9.7-0.5-14.8c1.1-1.8,2.6-3.9,2.6-5.9c0.3-9.8,0.3-19.6,0-29.3c0-1.1-3-3.4-4-3.1c-14.8,4.5-26.2,13.7-31.7,28.1    c-10.7,28,5.4,56.5,33,63.3c28.7,7.1,57.7-15.5,57.8-45.3c0-16,0.2-32,0.2-48c0-24-0.1-101.4,0.1-125.4c0-3.3,0.7-7.7,2.9-9.6    c2.6-2.2,7.4-3.5,10.6-2.8c5.8,1.4,7.6,6.5,7.6,12.5c-0.1,72.5-0.1,198.3-0.1,270.8c0,2.4-0.2,4.9-0.9,7.2    c-1.5,4.9-4.9,7.6-10.1,8.4c-5.9,0.9-11.2-1-13.6-6.1c-1.6-3.3-2.1-9-0.3-11.9C366,685.3,359.5,671.7,362,657.7z" />
		<path
   id="path10"
   d="M344.4,346.6c-12.4-2.5-24.4-4.4-36.1-7.4c-17.3-4.4-22.1-18.6-23.7-33.9c-1.4-13.4,0.6-26.4,7.8-38.3    c5.8-9.5,13.5-15.5,24.8-16.4c16.6-1.2,31.1,4.8,44,14.2c13.7,10,24.9,22.4,32.1,38.2c6.8,15,2.1,29.2-13.6,34.6    C368.3,341.6,356.3,343.6,344.4,346.6z" />
		<path
   id="path12"
   d="M510.1,346.1c-10.2-2.3-22.5-4.2-34.1-8c-16.3-5.4-22.1-21.3-14-36.6c11.8-22.5,29-39.5,53.4-47.7    c30.6-10.3,46.6,2.4,53.4,30c3.1,12.6,2.5,25.7-3,38.4c-4.6,10.6-12.7,15.9-22.6,18.6C533.2,343.4,522.7,344.2,510.1,346.1z" />
	</g>
	<g
   id="g20">
		<path
   id="path16"
   d="M426.6,676.7C251.2,505.5,270.2,437.2,273.3,429.5l28-25.9c10.8,17.1,41.2,44.1,125.3,44.1    c50.5,0,87.7-9.1,110.5-27c7.3-5.8,12.1-11.7,15.2-16.7l27.4,25.4c1.5,4.4,5.5,22-7.5,56C558.3,521.7,521.8,584.3,426.6,676.7z"
   class="st1" />
		<path
   id="path18"
   d="M300,417c3.1,3.5,6.9,7.2,11.6,10.8c24.8,19.2,63.5,28.9,115,28.9c52.6,0,91.6-9.7,116.1-29c4.4-3.4,8-6.9,10.9-10.4    l18.1,16.8c1.2,5.7,2.7,22.2-9.5,52c-9.3,22.8-24.5,48.5-45.2,76.4c-23.3,31.4-53.7,65.5-90.4,101.6    c-37.1-36.7-67.7-71.1-91.2-102.6c-20.9-28-36.1-53.6-45.3-76.1c-12.3-30-10.2-45.9-8.9-51L300,417 M548.8,388.5    c0,0-5.4,50.2-122.2,50.2c-114.3,0-122.2-50.2-122.2-50.2L266,424c0,0-42.9,68.9,160.7,265.2C627.1,497,587.3,424,587.3,424    L548.8,388.5L548.8,388.5z" />
	</g>
</g></g>
</svg>